PathFileType	4	(X/Y/Z)	Patient4_TMGait_0pt4_03_left_39.trc.trc
DataRate	CameraRate	NumFrames	NumMarkers	Units	OrigDataRate	OrigDataStartFrame	OrigNumFrames
79.545454545454	79.545454545454	6	33	mm	79.545454545454	53	       141
Frame#	Time	Sacral			L.Shoulder			Chest			R.Shoulder			Neck			R.ASIS			L.ASIS			R.Thigh.Superior			R.Thigh.Lateral			R.Thigh.Inferior			R.Patella			L.Thigh.Superior			L.Thigh.Lateral			L.Thigh.Inferior			L.Patella			L.Shank.Superior			L.Shank.Lateral			L.Shank.Inferior			R.Shank.Superior			R.Shank.Lateral			R.Shank.Inferior			R.Heel			R.Midfoot.Superior			R.Midfoot.Lateral			R.Toe			L.Heel			L.Midfoot.Lateral			L.Midfoot.Superior			L.Toe			L.Elbow			L.Wrist			R.Elbow			R.Wrist			
		X1	Y1	Z1	X2	Y2	Z2	X3	Y3	Z3	X4	Y4	Z4	X5	Y5	Z5	X6	Y6	Z6	X7	Y7	Z7	X8	Y8	Z8	X9	Y9	Z9	X10	Y10	Z10	X11	Y11	Z11	X12	Y12	Z12	X13	Y13	Z13	X14	Y14	Z14	X15	Y15	Z15	X16	Y16	Z16	X17	Y17	Z17	X18	Y18	Z18	X19	Y19	Z19	X20	Y20	Z20	X21	Y21	Z21	X22	Y22	Z22	X23	Y23	Z23	X24	Y24	Z24	X25	Y25	Z25	X26	Y26	Z26	X27	Y27	Z27	X28	Y28	Z28	X29	Y29	Z29	X30	Y30	Z30	X31	Y31	Z31	X32	Y32	Z32	X33	Y33	Z33	

53	52.383714285714	865.127591093882	997.609010176784	467.998169646452	1020.041337376734	1431.599527913786	274.325340877557	1131.563427350197	1370.248921781353	432.716921849790	1051.258525542577	1439.484378259452	610.418363376146	1008.378548926092	1495.707917571006	430.772093335365	1102.626204165010	943.979468016930	573.795481372730	1076.463908304439	969.474445703558	300.954691040983	1188.037826986549	772.421929359448	539.331377913648	1151.483167428705	649.622304919934	614.688488449497	1239.768763628100	611.963043010330	533.515880563414	1258.674288815063	498.300344250008	554.453360071474	1132.381399599119	755.330376482343	323.118811820737	1044.808164645108	637.852955499259	265.106412469117	1132.467827641562	562.028100314154	324.680961343110	1133.510891135777	493.139404571878	333.973015321873	1108.873035714386	419.889257837910	325.740033158931	1020.076964510590	303.654659084329	278.161957715824	1075.626634041807	194.127441226544	348.268033830319	1180.309723267234	424.725565733599	566.159554553865	1061.738080710339	392.421664714469	636.474317241142	1036.808924117477	284.756489716532	589.286071458793	834.414405111110	246.558061881722	579.985335220124	994.422032924470	159.408051201346	603.142934474488	888.020750125828	171.820154574963	643.385148578390	1041.029918551295	34.275492611658	613.150393280031	951.690835777414	38.040988528719	397.054026624862	1019.367821797557	35.197647770192	310.783767650603	1103.361776809289	97.376574226710	333.519650528090	1229.716446932858	48.975130340032	294.708971276869	1035.626473044455	1080.371866837650	148.234379562202	1198.525085449825	875.303346424492	134.650467580156	1033.305081884352	1090.514433927403	730.111828587487	1133.011360349133	848.707726552769	711.833866621278	
54	52.396285714286	864.518905172493	997.946490333921	466.362512322229	1021.361510309875	1432.510325094233	274.126412741038	1131.485216450086	1370.652726518189	433.318884653796	1049.667191638763	1439.375879666046	610.532594110881	1008.571981160510	1496.207122732665	430.811163494142	1101.659765207496	944.946795477080	573.481037174256	1077.277005123036	970.035046900971	300.288239012301	1189.175057257085	775.743180355671	538.824903990021	1155.142549120600	652.961022803349	614.929828801767	1243.770474599203	616.438351968560	533.573995782668	1264.947285926998	503.001926706627	554.926368978697	1131.548145599116	754.811131494066	322.844430413227	1043.103261293363	637.818572756475	264.761385039008	1130.059174187131	561.403732778250	324.488869789614	1130.576695921348	492.562911932920	333.983557188152	1105.646698539629	419.468713351118	325.714774283697	1016.412208030234	303.630138071265	278.066949768858	1071.221169530218	193.867780432491	348.311499865753	1187.208652382627	428.410286878672	566.821108948660	1068.976588265600	394.979414614324	637.171230198103	1045.168776218125	286.904635730806	590.238738377868	843.287592463958	246.278001290268	581.422474121394	1004.369535776836	161.113467320801	604.095423042782	897.915800106750	171.939371866734	644.442345002817	1052.266789594254	35.819469469807	613.189656643884	946.599017160958	38.043750514848	397.010358393659	1014.312927508915	35.217623381588	310.749599366744	1098.347102844582	97.303069096163	333.549845582023	1224.685133583923	48.852693004117	294.665481814397	1039.971846702295	1082.409013385005	145.717959165477	1211.464945760189	884.432342884904	132.341315625879	1022.964927657063	1090.454545503707	728.269760248037	1109.636786514686	843.012143916529	714.095234704973	
55	52.408857142857	863.982701658038	998.336519389947	464.823326867606	1022.831973667859	1433.475668110351	274.095546608467	1131.531439644456	1371.037279827467	434.046549833950	1048.236613643070	1439.277976263349	610.756417737416	1008.883444682828	1496.721605705134	431.013055564794	1100.653976809740	945.897234558789	573.249838833175	1078.128139435564	970.562489374309	299.716104776290	1189.973987752924	778.810505884369	538.453523330557	1158.244887749624	656.148521027189	615.374054804148	1247.053953143982	620.571937849492	533.780073379172	1270.361475632879	507.552834740266	555.630112145130	1130.659059676564	754.285861729431	322.857344414291	1041.392439676765	637.792839978563	264.550730231652	1127.576173906927	560.787599737156	324.482095504883	1127.537788698853	491.989976477286	334.154313004480	1102.338789366940	419.061197138514	325.806615961565	1012.691135428236	303.622341267167	278.042507981297	1066.776281309472	193.617142458830	348.391514491461	1193.600409270567	431.777875422101	567.693736385928	1075.906455070114	396.489724259963	638.001188954127	1053.916223625486	287.898477236001	591.274537344148	852.740570949371	243.292537138528	582.711022390186	1015.543448607010	161.681232914866	605.270027443831	908.951701878622	170.085370979847	645.626510437121	1065.874514998551	37.148061523803	613.901515057287	941.500809363794	38.047823620160	396.971967859952	1009.258397221334	35.238526834374	310.721289831371	1093.333161852369	97.233760186888	333.591446911448	1219.656020760817	48.729821197041	294.632478986824	1043.976325738012	1084.503846562991	143.466999867786	1223.887359281987	894.139426369966	130.401203582489	1012.684814804662	1090.803380177578	726.775831521596	1086.913280185759	838.906730728528	716.179547473208	
56	52.421428571429	863.510787100498	998.774555982267	463.372523052482	1024.471291850958	1434.467171229895	274.218032791035	1131.706949706465	1371.385925102339	434.899342743637	1046.962687476525	1439.194778100637	611.079764307702	1009.318985843768	1497.236984562152	431.357045763363	1099.606577729406	946.810460600371	573.119429895956	1078.944477477285	970.999264523644	299.277885780027	1190.453623839140	781.586245645462	538.245406931304	1160.768032574812	659.112897288206	616.025337978825	1249.623833870030	624.281646556191	534.159241068235	1274.874839590787	511.877430612229	556.569567707541	1129.706291967295	753.756179861834	323.157450638160	1039.663055495865	637.784738576173	264.454315338878	1124.999296316915	560.186244576568	324.644086121056	1124.373765193935	491.426983619049	334.464179088280	1098.933611003080	418.669106680366	325.996820351615	1008.903260974406	303.626978366612	278.077187890429	1062.289322242143	193.377059234948	348.500156139143	1199.470910458948	434.775694939090	568.780132286289	1082.549162073451	396.915242440176	638.970603754755	1063.095608160932	287.735906887701	592.416111722592	862.932299261239	237.712450342673	583.830614484066	1027.952784490588	161.100574114030	606.704200262527	921.173187498921	166.363571443213	646.954817471137	1081.729253861945	38.166140509605	615.412485096273	936.400817512357	38.053302948885	396.938542541652	1004.205786318303	35.258319266295	310.698255839137	1088.322674221709	97.167707034775	333.642817290961	1214.631535494483	48.605438075394	294.609148358381	1047.676139273675	1086.615376708875	141.474330655758	1235.739220174312	904.335827931557	128.825341736783	1002.529881158615	1091.562574190027	725.650457393647	1065.046276979435	836.272667084324	718.082370418438	
57	52.434000000000	863.093032058067	999.257030970271	462.003649655638	1026.287729513767	1435.454530906792	274.481099233616	1132.012299684346	1371.684383073423	435.876250704337	1045.839634104354	1439.130714257352	611.494474618182	1009.880477466388	1497.738936420167	431.824186067891	1098.519871828372	947.666198725746	573.109450196640	1079.646293267912	971.283309207831	299.018497235656	1190.624645544521	784.029257183550	538.229009183373	1162.675424770868	661.781010525495	616.878753438840	1251.470179698343	627.488503847565	534.729229870760	1278.442475187030	515.902096456976	557.736383589354	1128.687941597835	753.221948116469	323.727848574043	1037.903690025392	637.801672254453	264.451778949844	1122.313554056517	559.605318687642	324.953133735732	1121.071984114982	490.881655572493	334.887233725982	1095.419447282574	418.294889291000	326.265234902338	1005.041036201230	303.640329579294	278.158029487513	1057.759146714753	193.149053554165	348.629501672893	1204.794430217506	437.366541164439	570.077934070406	1088.927427270582	396.259577469294	640.089530692465	1072.734392302832	286.468209323704	593.690172075790	874.028179565767	229.715593209845	584.801804421214	1041.585486570139	159.436920029587	608.420214000562	934.630730719489	160.937886483768	648.450633872871	1099.664831730200	38.871257736864	617.770917297423	931.302999997737	38.059513391330	396.909648436813	999.155798147836	35.274817944012	310.679830491487	1083.316723942467	97.104591616349	333.701584528839	1209.612624389673	48.480096442105	294.594182105141	1051.116588257644	1088.703525655973	139.731774450066	1246.976590281211	914.914230343608	127.604898713077	992.567404935756	1092.718839292857	724.891861521888	1044.194780582282	834.952270318533	719.815945642420	
58	52.446571428571	862.720430303546	999.780844543802	460.713508873623	1028.279671766052	1436.408115479100	274.875043080202	1132.445103504684	1371.921634503872	436.975619047049	1044.862627459447	1439.089887715552	611.994936690350	1010.566507132256	1498.214414832180	432.398391732044	1097.399840949591	948.444439987433	573.239732494263	1080.166697436160	971.362985221889	298.980206866022	1190.487444405414	786.093849514709	538.431027713684	1163.916241315388	664.080630238904	617.920436451194	1252.567389504324	630.118344089975	535.499749550958	1281.019886861325	519.557861926904	559.108836871235	1127.605693243565	752.681240736682	324.540161117707	1036.105762513079	637.849065010408	264.524989725551	1119.509337009290	559.049297653390	325.387228231310	1117.628234927498	490.362695071432	335.396867827047	1091.789037122331	417.940713276673	326.593322990557	1001.100171897596	303.659648827947	278.272409899777	1053.186135447560	192.934552688665	348.772769089865	1209.535151817852	439.529060884573	571.576472858664	1095.067541314397	394.563091709663	641.371142535629	1082.841671533580	284.195529550880	595.120310291559	886.187046277826	219.540390749445	585.680367216777	1056.408378857107	156.825874675862	610.419490894780	949.374563773663	154.021777859059	650.136904562493	1119.482902287020	39.354000536191	620.939288634437	926.210323376903	38.065156980109	396.884666686519	994.108342507422	35.286130119810	310.665158658658	1078.314732232868	97.044456872617	333.765023822470	1204.598730823000	48.355718942330	294.586120570561	1054.348540582201	1090.731456643849	138.231452611509	1257.566174984129	925.751982684295	126.728935097883	982.865819202296	1094.245434178767	724.478690210701	1024.472356799055	834.762837659419	721.402407442664	
